<svg id="Layer_1" data-name="Layer 1" xmlns="http://www.w3.org/2000/svg" width="622.56" height="725.27" viewBox="0 0 622.56 725.27"><defs><style>.cls-1,.cls-3{fill:#2b357c;}.cls-1,.cls-2{fill-rule:evenodd;}.cls-2{fill:#e4ab31;}.cls-4{fill:none;}</style></defs><title>iub-logo_freelogovectors.net</title><path class="cls-1" d="M65,601.25H686.28V480.37H593.46V193.62c.08-67-60.1-143.5-217.85-181.26C217.87,50.12,157.69,126.66,157.77,193.62V480.37H65Z" transform="translate(-63.72 -12.36)"/><path class="cls-2" d="M325.13,129.88,308,91.74l-17.18,38.14-.66,27.21h-6.37v8c0,3,3,6,6,7.44l-.93,38.79h-9.67v10c0,4,5.29,7.86,9.2,9.57L287,287.18H271.82V304h14.77l-3.12,130v47.21H511.32V434h-7.9c.14-2.54.19-5.12.19-7.71,0-56.95-40.13-104.21-76.92-113.12l-12.1-32.87-12.1,32.87c-28.35,6.87-58.71,36.51-71.13,75.83l-2-85h14.77V287.18H328.91l-1.35-56.26c3.91-1.72,9.18-5.59,9.2-9.58v-10h-9.67l-.94-38.74c3-1.46,6.09-4.44,6.1-7.49v-8h-6.47ZM210.49,558.74a34.94,34.94,0,0,1-3.57,7.22,66.35,66.35,0,0,1-4.58,7c-3.16,4.15-29.72,7.57-25.12,3.78a16.16,16.16,0,0,1,1.94-1.24c7.56-3.32,14.94-5.84,21.28-10.46.34.2,3.55-2.49,1.23-4.87-3.47.28-3.86.42-5.11-.11a7.05,7.05,0,0,1-3.26-2.2,5.07,5.07,0,0,1-1-2.77c-.18-2,2.06-3.69,3-7.24,1.34-5.17,2.55-5.81,5.5-6.51a7,7,0,0,1,4.23.51c2.42,1,4.2,1.89,5.4,5.36a17.36,17.36,0,0,1,1,5.43,18.27,18.27,0,0,1-1,6.12m-57,2.51a53.21,53.21,0,0,1-2.84,5.23,67.69,67.69,0,0,1-4.57,7c-3.18,4.16-29.69,7.59-25.07,3.79A11.07,11.07,0,0,1,123,576c7.55-3.29,14.94-5.81,21.28-10.47.3.25,3.56-2.47,1.27-4.82-3.53.28-3.9.39-5.14-.08a7.38,7.38,0,0,1-3.29-2.23,5.12,5.12,0,0,1-1-2.83c-.12-2,2.1-3.7,3-7.18,1.38-5.16,2.6-5.83,5.53-6.55a7,7,0,0,1,4.29.55c2.36.92,4.15,1.86,5.37,5.35a18,18,0,0,1,.85,3.81c4.81.84,8.92-1.48,12.46-5.87,2.59-3.2,3.84-1.89,5.82-.91,11.51,5.72,4.27-56.78,3.76-83.22h0V188.14l.16-5.31.44-5.1.75-5.14,1.05-5.18,1.39-5.22,1.72-5.27,2.06-5.3,2.41-5.33,2.78-5.32,3.16-5.37,3.57-5.4,4-5.39,4.37-5.38,4.8-5.38,5.24-5.36,5.67-5.33,6.14-5.27,6.62-5.24,7.1-5.18,7.57-5.1,8.08-5,8.58-4.93,9.1-4.83,9.61-4.71,10.15-4.59L304.33,54l11.24-4.31,11.78-4.16,12.34-4,12.91-3.82,13.48-3.63,9.53-2.32,9.56,2.32,13.48,3.63,12.91,3.82,12.34,4,11.78,4.16L446.92,54l10.68,4.45,10.14,4.59,9.63,4.71,9.09,4.83L495,77.54l8.08,5,7.59,5.1,7.08,5.18,6.61,5.23,6.14,5.28,5.69,5.34,5.24,5.35,4.79,5.38,4.37,5.38,4,5.39,3.55,5.39L561.3,141l2.78,5.34,2.43,5.34,2.06,5.3,1.72,5.26,1.37,5.21,1.07,5.19.74,5.13.43,5.08.15,5.31V461.49c4.79,32.84-8.48,94.44,12.4,99.39s45.22-9.63,69-19.86c-4.93,17.81-11.11,12.87-14.42,35.05-3.46-2.58-4.46-9.77-2.64-17-46.79,23.53-60.77,15.06-70.55,0-6.37,20.83-39.85,24-47.59,11.81,7.39-.53,13.13-.45,18.53-1.47,4.43-1.21,7-4.27,6.62-9.69-.72-15.32-3.44-29.85-6.57-44.24,3-6.08,5.35-9.61,7.39-12,4.15,13.93,6.07,33.05,7.8,52.62,1.84,1.85,3.83,1.81,6.16-2.4,2-31.22,1-61.39,0-92.62h0V448.05h0V188.29l-.13-4.75-.37-4.32-.63-4.37-.92-4.46L557,165.91l-1.49-4.56-1.79-4.62-2.13-4.68-2.45-4.72-2.81-4.76-3.19-4.82-3.56-4.86-4-4.88-4.37-4.9-4.82-4.93-5.26-4.93-5.7-4.9-6.19-4.9-6.64-4.86-7.16-4.81L487.76,89l-8.16-4.69-8.68-4.61-9.23-4.52-9.75-4.41-10.31-4.3-10.87-4.17-11.41-4-12-3.87-12.58-3.72-13.15-3.54-6-1.46-6,1.46-13.15,3.54L343.9,54.41l-12,3.87-11.41,4-10.87,4.17-10.31,4.3-9.76,4.41-9.21,4.51-8.69,4.62L263.48,89l-7.66,4.77-7.14,4.81L242,103.45l-6.19,4.91-5.7,4.89-5.23,4.91-4.83,4.94L215.68,128l-4,4.88-3.56,4.86-3.2,4.83-2.81,4.78-2.45,4.69-2.1,4.66-1.81,4.63-1.49,4.57-1.19,4.49-.91,4.45-.64,4.38-.37,4.35-.14,4.75V448.05h.08v13.47h0c-.41,7.9,2.16,81-6.36,86.86-6.45,8.77-10.59.39-13.93,3-7.75,8.17-11.59,1.38-17.29,9.9M400.78,511c-3.69,26.06-52.08,48.49-80.44,28.52-4.92.51-8.3,4.57-6.62,7.93,17.68,4.7,15.14,13.52,6.81,23.94C307,590.45,279.16,590.77,271.88,573c-2.4-15.19-.18-24.52,15.49-36.86,3.15-2,4.37-2,1.93,1.29-5.74,6.53-9.81,13-11,21.56-1.62,10.7,7,17.66,21.56,14a20.87,20.87,0,0,0,10.32-6.34c5.66-5.93.73-7.51-6.67-9.75-3.06-1-2.84-5-1.76-10.79,2.92-15.55,22.07-21,30.61-13.3,9.74,11.88,49,6.21,68.46-21.82m126.8,53.06c4.61-4.73,3-15.64-3-19.71s-12-1-13.8,9c-2.84,4.93-8.4,4.86-11.2,2.16s-2.73-4.47-4.77-7c-4.92,11.06-11.36,10-13.14,4.07s-1.52-11-3.34-16.71c-5.52,5-11.55,8.56-15.92,16s1.66,9.72,12.48,9.92c7.6,7.27,14.59,7.7,20.18-1,4.64,6.63,10.27,9,18,1.21,4.62,4.27,8.77,6.86,14.5,2.18m-53.83,18.82a13.6,13.6,0,0,1,4.86-4.74,14.33,14.33,0,0,1,3.66,3.28,15,15,0,0,1,4.58-4.19,15.91,15.91,0,0,1,4.89,4.66,22.87,22.87,0,0,1-4.89,4.78,15.93,15.93,0,0,1-3.83-3.3,22.4,22.4,0,0,1-4.41,4.18,13.23,13.23,0,0,1-4.86-4.67m45-32.3c1.23-.55,3.21.87,4.43,3.13s1.27,4.54,0,5.08-3.2-.94-4.41-3.23-1.27-4.51,0-5m-46.68-1.28c1.77-.35,2.92-.26,2.86,1.73s-1,2.25-2.72,1.87-3.24-1.15-3.24-1.85,1.38-1.39,3.1-1.75m130.4-28c11.92-6.94,24.8-2.79,12.09,4.12-2.23,1.19-2.63,2.54.22,2,5.37-.89,11.35-3.39,14-9s-3-7.79-5.71-8.08a26,26,0,0,0-15.87,3.53,28.37,28.37,0,0,0-6.65,5.68,1.32,1.32,0,0,0-.36,1.27c.12.67.86.9,2.29.51m-368.1,57.91c-.1.1-.63.89-1.5,2.32-.46.83-.63,1-.65,1.64,0,.84.24,1.29.71,1.44s.52.26,1.08-.58c.3-.46.68-.6,1-.36a1,1,0,0,1,.54.88,6.37,6.37,0,0,0,.05,1,4.32,4.32,0,0,1-3,3.62,1.44,1.44,0,0,1-1.52-.38,2.68,2.68,0,0,1-1.13-2.07,8.48,8.48,0,0,1,.56-3.64,9.84,9.84,0,0,1,1.13-2.07,8.89,8.89,0,0,1,2-2.42c0-.09.29-.12.43-.1s.34.33.25.75M158.91,521.1l-.34,4.08A36.3,36.3,0,0,1,155.2,523a25.09,25.09,0,0,1-4,4.29,8.08,8.08,0,0,1-4.35,1.88,12,12,0,0,1-2.55-.62,48.68,48.68,0,0,0,4.47-2.62c.82-.61,2.37-1.9,4.63-3.94-1.58-1.16-2.5-2.35-2.62-3.59a9.18,9.18,0,0,1,1.54-4.5,4.28,4.28,0,0,1,3.5-2.53,2.61,2.61,0,0,1,2.11.87,4.8,4.8,0,0,1,.66,2.85,11.7,11.7,0,0,1-1.3,4.81,5.27,5.27,0,0,0,1.64,1.24M156,517.46a3.06,3.06,0,0,0-.58-1.72,1.78,1.78,0,0,0-1.48-.93c-.69,0-1,.35-1,1a2.32,2.32,0,0,0,.59,1.4,12.14,12.14,0,0,0,2.29,1.66,3.26,3.26,0,0,0,.1-.74c0-.29.06-.5.06-.7m296.21-6.39-.33,4.07a36.9,36.9,0,0,1-3.39-2.19,25.61,25.61,0,0,1-4,4.26,7.84,7.84,0,0,1-4.33,1.87,11.58,11.58,0,0,1-2.53-.61c1.66-.85,3.1-1.77,4.46-2.64.79-.6,2.34-1.88,4.61-3.93-1.57-1.11-2.51-2.32-2.62-3.58a8.71,8.71,0,0,1,1.57-4.51A4.28,4.28,0,0,1,449,501.3a2.5,2.5,0,0,1,2.14.88,4.8,4.8,0,0,1,.67,2.84,12.55,12.55,0,0,1-1.29,4.82,5.41,5.41,0,0,0,1.62,1.23m-2.92-3.68a3.05,3.05,0,0,0-.63-1.67,1.75,1.75,0,0,0-1.5-.93c-.62,0-.91.35-.91,1a2.25,2.25,0,0,0,.55,1.39,12.08,12.08,0,0,0,2.27,1.64,3.87,3.87,0,0,0,.19-.71,7.24,7.24,0,0,0,0-.76m-132.8-2.67.37,0v.31a1.05,1.05,0,0,1,.06.33c0,4-.29,6.63-.82,7.72a5.59,5.59,0,0,0,1.18-.66,3.67,3.67,0,0,1,2-.67c1.42,0,2.18.83,2.18,2.55,0,.65-.67,1.55-1.87,2.92a5.73,5.73,0,0,1-2.71,1.67,29.62,29.62,0,0,1-6.07.7.94.94,0,0,1-.61-.18c0-.5.56-1,1.52-1.45a15,15,0,0,0,2.22-3.11,12.5,12.5,0,0,0,.63-4.31c0-2.12.11-3.31.38-3.65Zm-2.2,12.6c3-.31,4.47-1.13,4.47-2.56a1.14,1.14,0,0,0-.81-.38,2.79,2.79,0,0,0-2.12,1.08c-.49.58-1,1.2-1.54,1.86m341.07,67.85,13.56-10.53,6.33.19L661.67,586ZM675,506.69c-.31,1.46-.68,3.64-1.06,6.45-.39,3.62-.61,8.63-.73,15,0,7.38-.1,24.72-.26,27.64-.14,1.62-5.56,7.52-7,7.52a1.69,1.69,0,0,1-.84-.25c-.71-.36-1.07-1.07-.75-2.24.65-2.16.75-10.59.65-19.33-.06-7.07-.66-10.16-.47-18.91a100.38,100.38,0,0,1,8.15-16.24,1.74,1.74,0,0,1,2.34.36M149.75,575.34a13.81,13.81,0,0,1,4.88-4.68,14,14,0,0,1,3.74,3.28,13.94,13.94,0,0,1,4.56-4.26,18.07,18.07,0,0,1,4.83,4.74,27,27,0,0,1-4.83,4.72,15.22,15.22,0,0,1-3.85-3.26,23.38,23.38,0,0,1-4.45,4.16,13.19,13.19,0,0,1-4.88-4.7m4.15,7.88a13.44,13.44,0,0,1,4.87-4.73,18.45,18.45,0,0,1,4.89,4.73,26.1,26.1,0,0,1-4.89,4.67,13.65,13.65,0,0,1-4.87-4.67M216,518.42V514.6c.09-.12,1.35-2.43,3.9-7a19.07,19.07,0,0,1,1.26-2.1c.06,0,.16,0,.16.07q-.36,3.87-.95,21.22a89.83,89.83,0,0,0,1.23,20.49,16.88,16.88,0,0,0,3.39,6.18v0c8.79,6.58,13.64-6.45,20.12-11.71,3.13,2.47,2.75,6.32-1.21,11.3-1.79,4-.27,9.14,2.8,7.53,10.92-5.6,16.53-10.76,16-24.1,3-3.54,10.48-2,9.23,3.46C263.53,565.43,246.4,563,250,581.18c-4,1.89-7.52,1.89-10.75,0,.48-7.89.13-14.87-2-19.65-3.94,4.71-10.73,8.16-16.48,4.6-2.87-2-4.53-6.29-4.8-13.22V518.42ZM415.5,514a14.59,14.59,0,0,1,4.88-4.69,16.79,16.79,0,0,1,4.85,4.69,23.18,23.18,0,0,1-4.85,4.74A13.22,13.22,0,0,1,415.5,514M255.44,583.59a13.8,13.8,0,0,1,4.88-4.76,19,19,0,0,1,4.83,4.76,25,25,0,0,1-4.83,4.66,13.19,13.19,0,0,1-4.88-4.66m120.29,2.26a13.34,13.34,0,0,1,4.89-4.73,15.62,15.62,0,0,1,3.78,3.3,14.46,14.46,0,0,1,4.53-4.24,17.42,17.42,0,0,1,4.81,4.71,22.49,22.49,0,0,1-4.81,4.73,13.54,13.54,0,0,1-3.87-3.26,21.37,21.37,0,0,1-4.44,4.2,13.91,13.91,0,0,1-4.89-4.71M331,571.12c-.64,0-.94-.31-.91-.65s.74-.79,1.77-1.21c3.81-1.55,13.32-3.29,17.28-5.24a29.6,29.6,0,0,0,8.48-7.33c2.24-2.72,3.18-3.41,5.4-6.23a1.56,1.56,0,0,1,1.51-.48c.56.06.78.32.71.76-.24,1-.24,1.43-2.59,5-4.08,6.11-10.44,12.3-14.53,15.93-1.9,1.64-13.72-.69-17.12-.59m-241.77-.79c-.76.09-1.22-.23-1.29-.64s.82-1,2-1.66c4.34-2.46,15.48-5.8,20-8.73,3-2,6.33-5.58,9.11-9.95,2.32-3.57,3.4-4.54,5.63-8.2a1.92,1.92,0,0,1,1.72-.8c.73,0,1,.29,1,.8-.17,1.34-.05,1.78-2.38,6.38-4,8-10.83,16.21-15.16,21.14-2.11,2.34-16.62,1-20.62,1.66m355-11.59a36.48,36.48,0,0,1-3.62,7.22,73.09,73.09,0,0,1-4.57,7c-3.16,4.15-29.69,7.57-25.05,3.78a11,11,0,0,1,1.9-1.24c7.53-3.32,15-5.84,21.26-10.46.31.2,3.6-2.49,1.3-4.87-3.58.28-3.95.42-5.14-.11a7.49,7.49,0,0,1-3.34-2.2,5.14,5.14,0,0,1-1-2.77c-.14-2,2-3.69,3.05-7.24,1.32-5.17,2.59-5.81,5.48-6.51a7.23,7.23,0,0,1,4.29.51c2.38,1,4.15,1.89,5.39,5.36.11.24.14.49.23.75,2.92,2.54,6.55.66,7.76-8,.13-3.69.22-7.41.26-11.11-.13-4.13,5.37-6,9.6-7.33-.57,16.17-4.37,28.47-17.4,35.71a9.58,9.58,0,0,0-.45,1.55m-12.49,24.9a13.13,13.13,0,0,1,4.89-4.74,14.88,14.88,0,0,1,3.69,3.29,15.41,15.41,0,0,1,4.53-4.26,17.13,17.13,0,0,1,4.87,4.72,21.17,21.17,0,0,1-4.87,4.76,15.67,15.67,0,0,1-3.85-3.27,23.08,23.08,0,0,1-4.37,4.2,13.4,13.4,0,0,1-4.89-4.7m-40.08-24.9A38.92,38.92,0,0,1,388,566a59.45,59.45,0,0,1-4.59,7c-3.13,4.15-29.63,7.57-25,3.78a9.84,9.84,0,0,1,1.92-1.24c7.55-3.32,14.9-5.84,21.22-10.46.29.2,3.6-2.49,1.31-4.87-3.51.28-3.9.42-5.18-.11a6.77,6.77,0,0,1-3.23-2.2,4.5,4.5,0,0,1-1-2.77c-.09-2,2.12-3.69,3-7.24,1.4-5.17,2.61-5.81,5.53-6.51a7.41,7.41,0,0,1,4.32.51c2.32,1,4.15,1.89,5.35,5.36.13.54.35,1,.45,1.6a14.64,14.64,0,0,0,12.35-8.2,3.39,3.39,0,0,1,4.76-1.49c3.45,2.18,6.61-.15,9.85-4.31,1.67-2.2,2.3-.85,1.74,1.15C419,543,415,547.26,409,546.2c-1.48-.28-3-1.46-5.15,1.06-3.73,4.17-5.36,9.32-12,10.84,0,.16-.1.42-.13.64m81.46-425.09,3.46,10.29h11.17l-9,6.38,3.47,10.3-9.07-6.37-9,6.37,3.47-10.3-9-6.38h11.17Zm27.52,54a56.83,56.83,0,0,1-51.88,32.8c-31.32,0-56.71-24.66-56.71-55.07,0-22.49,13.89-41.84,33.79-50.39a50.44,50.44,0,0,0-14.22,35c0,28.41,23.7,51.42,52.95,51.42a53.64,53.64,0,0,0,36.07-13.8m-196-15.7h6.69V447.77h-6.69ZM415.14,388.89c13.36-4.67,24.41-9.1,37.79-13.77,7.42,2.17,9.17,1.33,5.89,3.28-13.53,4.7-26.7,10-40.22,14.68-5.57-2-7.8-2.95-3.46-4.19M380.27,349.6c3.27-2.59,6.53-5.14,9.79-7.73,2.31-.14,3.61.09,2.91,1l-9.87,7.78c-1.8,0-3.46-.12-2.83-1M485.1,432.38c-.34,5-.11,7.93-.44,12.93a7.63,7.63,0,0,1-5.18,7.16c-18.22,8.12-44.18,10.89-53.38,9.86-20.16-3.48-19-16.49-12.58-27.48,1.37,10.73,3.71,21.85,22.79,20.62A195.26,195.26,0,0,0,466.67,450c9.23-3,10.68-6.1,12-13.36.16-2.22,5-4.29,6.47-4.22M465.56,393.6a10.44,10.44,0,0,1,9.79,6.1c5.27,7.27,5.34,15.65-2.15,23.67-25.22,19-54.53,16.23-69.34,2.51-6.77,17.66-23.4,15-34.79,23.78-10.88,8.39-25.87,20.56-36,7.56-1.39-1.81-1.07-2.06-3.48-1.85-3.79.35-7.76,1.12-11.63,1.68-5.75,1.16-5.61.09-.71-2.32a254.3,254.3,0,0,0,37.32-26.49c5.86-5,.22-4.88-6.26-4-6,.85-10.64-7.92-6.46-14.71,6.88-11.18,23.18-5.23,24.66,9.61,0,14-18.89,23-31.15,32.79,7.92,10.43,20.56-4.86,32.22-11.05,10.18-6.73,27.17-7.47,26.4-18-.85-12-15.33-32.2-24.45-49.17-3.39-7.9.88-14.09,8.19-15.43,21.91-3.95,41.25-6,63.5-9.5,7.51-1.27,14.68,4.28,11.29,10.75-1.8,4.56-3.5,5.5-5.77,8.93-4,5.05-9.09,5.47-6.58-2.17,1.37-2.71,2.95-7.91-.34-7.79-18.56,2.44-35.5,5.22-54.07,7.66-5.16.62-7,2.81-3.53,9.15,10.71,19.05,20.38,37.64,29.23,46.35,15.23,12.82,51.72,6.82,60.09-10.45.42-.92,0-1.77-.78-1.22a13.55,13.55,0,0,1-7.57,2.45c-5.24-.22-7.42-3.15-7.27-7.28s4.14-11.42,9.63-11.59M353.73,380.16a33.53,33.53,0,0,1,4.15,4,10.52,10.52,0,0,1-4.15,4,11.25,11.25,0,0,1-4.15-4,33.53,33.53,0,0,0,4.15-4m26.55,34.16c1.43,0,2.45,1.69,2.28,3.76a4.55,4.55,0,0,1-.27,1.26c.35.36.72.74,1,1.13.34,1.19-.15,1.71-.93,1.77s-1.12.05-1.69.07l-.44.64c-1.57,2.08-3.41,3.77-4.12,3.77s0-1.69,1.54-3.77c.36-.48.75-.95,1.11-1.36a3.71,3.71,0,0,1-1.39-3.51c.16-2.07,1.46-3.76,2.88-3.76M392.66,455c-1.43,0-2.54-1.69-2.5-3.77a5,5,0,0,1,.2-1.26c-.36-.36-.75-.74-1.08-1.13-.42-1.19,0-1.71.82-1.77s1.13,0,1.69-.06l.41-.65c1.44-2.08,3.18-3.77,3.9-3.77s.11,1.69-1.33,3.77c-.33.48-.69.95-1,1.36a3.94,3.94,0,0,1,1.59,3.51c-.05,2.08-1.25,3.77-2.67,3.77m46-11.77A28.48,28.48,0,0,1,445,437.1a53.64,53.64,0,0,0,5,5.08l-.05-.09a28.25,28.25,0,0,1,6.33-6.15,51.83,51.83,0,0,0,6.35,6.15,21.38,21.38,0,0,1-6.35,6.16,19.08,19.08,0,0,1-5.26-4.6,21.39,21.39,0,0,1-6.05,5.77,18.35,18.35,0,0,1-6.33-6.17M424.1,417.81c8.88-3.09,13.31-4.86,22.2-8,4.92,1.44,6.08.88,3.91,2.17-9,3.12-14.83,5.45-23.81,8.57-3.69-1.33-5.17-1.95-2.3-2.78m12.71-23.67a48.18,48.18,0,0,1,6,5.85,15.29,15.29,0,0,1-6,5.85,16.2,16.2,0,0,1-6-5.85,47.43,47.43,0,0,0,6-5.85M408.23,378c.66,2.3,9.12,2.7,11.22.72s-.84-4.38,1.13-4.88,3.91-2.68,2-4.19-5.58-.7-6.41,1.36.22,3.29-2,3.78-6.65.92-6,3.21m-5.41-37.15,18.06-1.37c2.79,1.7,4.22,3,2.65,3.45l-18.26,1.36c-2-1.44-4-2.85-2.45-3.44" transform="translate(-63.72 -12.36)"/><path class="cls-3" d="M67.19,629c3.39-2.76,8.06-2.26,12.15-2.07,7.72.27,15.56,2.56,23.2.49a12.85,12.85,0,0,1-7,6.12c0,8.68,0,17.37,0,26.05,1.46-1.32,2.82-2.74,4.25-4.09a18.57,18.57,0,0,1-8.28,12.29C87,670.69,81.16,671,76,669.64c-5.49-1.43-10.45-5.8-11.52-11.53-1.77-8.89,3-18.34,10.85-22.69-1.51,2.62-3.36,5.13-4.18,8.1-1.19,4.17-1.63,8.81.06,12.9a12.25,12.25,0,0,0,10.55,7.28,19.74,19.74,0,0,0,12.31-3.09c.33-8.84,0-17.71.17-26.56-8.78,1.11-17.55-1.56-26.34-.68a7,7,0,0,0-4.19,2.34c.52-2.49,1.34-5.12,3.47-6.73m38.86.62a17.62,17.62,0,0,0,10.74-2.84,15,15,0,0,0-2,7.2c0,4.44,0,8.88,0,13.31,3.91-2.67,7.91-5.22,11.86-7.85.91,1,1.79,2.3,3.18,2.73s2.82,0,4.19-.23a7.87,7.87,0,0,1-3.17,4.68q0,7.18,0,14.37a9.66,9.66,0,0,0,1.94,5.67c-2.87-.56-6.28-1.18-8.86.56-1.53,1.58.92,2.77,2,3.61,2.6,1.43,2.72,5.43.63,7.36-1.12,1.2-2.87,1.35-4.37,1.71,1-1.7,2-3.62,1.68-5.66-.4-1.88-1.41-3.54-1.93-5.38a20.19,20.19,0,0,0,1.79-7.19c.1-4.74,0-9.48,0-14.22a10.29,10.29,0,0,1-3-2.67c-2,1.27-3.9,2.61-5.91,3.84-.16,4.55,0,9.11-.07,13.66a16.77,16.77,0,0,1,4.36,2.51,21.71,21.71,0,0,0-6.91,5.1,13,13,0,0,0-8.44-3.63,11.66,11.66,0,0,1,3.91-3.71c.06-9.72,0-19.44,0-29.16.1-1.47-.89-2.64-1.67-3.77m75.5,5.69c1.45-3.68,4.08-7.46,8.19-8.33,3.41-.91,6.46,1.3,9.69,1.92,2.07.44,4-.53,5.8-1.44-2.37,3.26-5.39,6.47-9.45,7.42-3.33.77-6.27-1.57-9.52-1.73-1.82,0-3.23,1.3-4.71,2.16m68.31-5.74a16.55,16.55,0,0,0,10.72-2.85,13,13,0,0,0-2,6.1c0,9.84,0,19.69,0,29.55a10,10,0,0,1,3.83,2.57c.92-.45,1.84-.91,2.77-1.34l.24,1.25a49.41,49.41,0,0,0-8.23,5.16,9.69,9.69,0,0,0-4.36-2.8c-1.53-.48-3.08.16-4.59.39a6.5,6.5,0,0,1,3.24-4.6c.05-9.85,0-19.72,0-29.58a6.44,6.44,0,0,0-1.63-3.85M345.17,633c2.23-2.06,4.48-4.08,6.57-6.28,1.05,2.43,3.53,4.21,6.25,3.22-.6,2.53-2.59,5.24-5.47,5.09-1.78.16-3.16-1.18-4.75-1.72-.77-.14-2.49.92-2.6-.31m64.89-4a9.37,9.37,0,0,1,10.81-1c2.41,1.74,3,4.94,3.1,7.73,0,8.33,0,16.65,0,25,1.24.3,2.49.64,3.72,1,0-11.63,0-23.25,0-34.87l1.37,0c0,2.06,0,4.1,0,6.16,3.28-2.15,6.61-4.22,9.91-6.33,1.32,1.47,2.74,3.1,4.76,3.57,1.36.44,2.77,0,4.15-.14a8.48,8.48,0,0,1-4.42,4.82c0,7.46,0,14.92,0,22.38.09,1.61,0,3.35.84,4.79.95,1,2.54,1,3.79,1.45-1.82,2.42-4.55,4.06-6.07,6.76a8.9,8.9,0,0,1-6.38-7.94c-4,2.78-8.09,5.35-12.1,8-2.37-1.75-4.93-3.53-7.93-3.91-1.76-.25-3.43.52-5.06,1a9.85,9.85,0,0,1,6-6.76c0-3.36,0-6.73,0-10.09-1.46.21-3.12,0-4.33.94a22.7,22.7,0,0,0-1.35,2.33c-.79-2.48-1.76-5.51-.06-7.84,1.29-1.85,3.72-1.88,5.73-2.14-.14-2.88.18-5.78-.2-8.65a3.42,3.42,0,0,0-4.39-2.57c-2.3.58-3.33,2.91-4.62,4.65-.13-3,.26-6.36,2.64-8.46m19,5.51c0,2.38,0,4.76,0,7.15a11.52,11.52,0,0,0,6.53,0c0-2,0-4,0-6.06a10.74,10.74,0,0,1-3.67-2.84c-1,.58-1.94,1.18-2.9,1.78m0,8.33c0,3.09,0,6.18,0,9.27a10.42,10.42,0,0,1,6.6,0c0-3.08,0-6.17,0-9.25a11.87,11.87,0,0,1-6.58,0m.05,10.36c-.09,3.15,0,6.3-.06,9.45a16.55,16.55,0,0,0,2.15,1.26c1.55-.83,3-1.89,4.44-2.83,0-2.56,0-5.11,0-7.67a9.92,9.92,0,0,0-6.54-.21m54.48-19.71c2-2.53,4.77-4.36,6.92-6.77,1,2.43,3.52,4.09,6.16,3.12-.56,2.35-2.19,4.91-4.82,5.1-1.68.33-3.12-.61-4.53-1.32-1.15-.72-2.5,0-3.73-.13m132.86-.6c2.25-2,4.54-4,6.63-6.19a7.26,7.26,0,0,0,2.66,3c1.1.61,2.37.19,3.56.13-.66,2.32-2.15,4.81-4.79,5.07-2.06.44-3.7-1-5.49-1.72-.9-.06-2.37,1.08-2.57-.33m-410.64-.41c2.13-2.61,5.49-3.69,8.58-4.66a6.62,6.62,0,0,0-2.28,4.81c-.27,9.64.07,19.3-.16,28.94a7.49,7.49,0,0,1-4.78,7,34.64,34.64,0,0,1-13.78,1.77c-3.91-.18-7.56-1.72-11.34-2.54-2.65-.44-4.95,1.26-7.11,2.52.83-4.17,4.46-7.92,8.86-8,3.48-.28,6.34,2.06,8.88,4.11a8.23,8.23,0,0,0,7.94,1.76c2.45-.89,3.38-3.71,3.42-6.1,0-7.61,0-15.21,0-22.83,0-2.35.18-4.93,1.77-6.81m431.43-.2c3.91.5,7.71-1,11-3-2.74,3.79-2.28,8.63-2.28,13a27.76,27.76,0,0,0,6.37-.35,12.48,12.48,0,0,0,0,3.61,23.82,23.82,0,0,0-6.36-.4c0,5.63,0,11.26,0,16.89a14,14,0,0,1,4,2.61c1.14-.28,2.54-1.71,3.32-.07a52.79,52.79,0,0,0-8.67,5.4c-1.28-1.21-2.6-2.59-4.41-2.9-1.5-.39-3,.14-4.46.42a9.45,9.45,0,0,1,3.26-4.77c.13-5.87,0-11.74,0-17.6a26.58,26.58,0,0,0-5.57.36c0-1.16,0-2.33,0-3.49a31.55,31.55,0,0,0,5.58.3c-.22-3.37.89-7.36-1.8-10m-442.77,6.34c2-2.35,5-3.18,7.83-4.06-2,3.69-1,8-1.25,12s.75,8.5-1.49,12.15c-1.8,2.9-5.45,3.4-8.54,3.88,3.26-3.41,1.74-8.42,2.05-12.62-2.18,0-4.65.28-5.58,2.56a5,5,0,0,1,.63-7.07c1.32-1.13,3.15-1.13,4.78-1.37,0-1.91.23-4,1.57-5.43M77.79,641a79.83,79.83,0,0,0,10.73-4.8c0,5.26,0,10.51,0,15.77-.06,2-.19,4.24-1.69,5.74-2.16,2.23-5.37,2.74-8.17,3.74.8-1.21,1.83-2.43,1.81-4,.21-5.37,0-10.74.09-16.11-1,.36-1.94.73-2.92,1.08,0-.36.11-1.08.15-1.45M139,643a20.34,20.34,0,0,0,16.79-3.55A26.71,26.71,0,0,0,163,649.6c-5,2.79-10.09,5.58-15.09,8.45,0,1.31,0,2.62,0,3.94a30.18,30.18,0,0,1,8.59,3.24,16.9,16.9,0,0,1,4.31-2.5l.49.88c-2.86,2.43-6.18,4.27-9.25,6.43-4.72-2.27-9.83-4.26-15.16-3.86a12.59,12.59,0,0,1,3.92-3.87c0-5,0-10.07,0-15.1A7,7,0,0,0,139,643m9,1.25c0,4,0,8,0,12,2.49-1.29,4.92-2.67,7.34-4.08a92.28,92.28,0,0,1-5-8.49l-2.36.54m71-1c5.26,1.25,10.9-.49,15-3.84,1.62,1.63,3.76,3.39,6.23,2.76,1.29-.21,1.59-1.87,2.82-2.16.49.8-.22,1.6-.47,2.33-1.73,3.59-4.54,6.47-7.22,9.36,2.94-.07,5.88,0,8.81-.07a5.93,5.93,0,0,0-1.52,3.93c.13,3.6-.76,7.66,1.54,10.79-5.37-1.15-11.29-.06-15.45,3.67-2.25-1.62-4.69-3.77-7.69-3.28-1.52.19-2.4,1.56-3.31,2.63l-1.12-.74c2.61-4.6,6.38-8.37,10.35-11.81q-4-.06-8,0a7.19,7.19,0,0,0,1.4-4.18c0-3.16.54-6.63-1.44-9.38m14.13,3.5c-2-.16-3.55-1.56-4.9-2.92l-1.61.48c0,3.1,0,6.2,0,9.31,1.5,0,3,0,4.49,0,3.31-3,6.64-6.07,9.13-9.82-2,1.56-4.39,3.31-7.12,2.92m-1.92,8.77a52,52,0,0,0-9.22,8c2.76-1,5.85-2.75,8.83-1.44a8.05,8.05,0,0,1,3.94,3.53l1.23-.68c.2-3.36,0-6.74.07-10.11-1.62.1-3.47-.4-4.85.7m36-11.54a11.67,11.67,0,0,0,6.47-4.51c.9,1.79,2.17,3.92,4.43,4,2.75-.23,4.88-2.16,6.79-4,1,1.15,1.91,2.48,3.41,3s2.76-.25,4.08-.62a11.64,11.64,0,0,1-3.46,4.73c0,3.81,0,7.63,0,11.44,0,1.64.13,3.46,1.27,4.77.95,1,2.42,1.22,3.68,1.68a64.06,64.06,0,0,0-5.59,5.21,7,7,0,0,1-6-5.44c-2.7,1.85-5.29,3.86-8,5.62a8.54,8.54,0,0,1-6.66-3.17,10.47,10.47,0,0,1-.92-8.69c1.12-3.26,4.24-5.12,7.05-6.77-2.18-2.4-4.38-4.79-6.51-7.25m8.44,2.82c-1.88.42-3.65-.58-5.34-1.23,3,3.37,6.07,6.66,9.05,10,.62.46.21,1.09-.14,1.55-1.49-1.64-3-3.27-4.55-4.83-1.46,1.91-2.8,4.33-1.87,6.79.85,3.21,4.18,4.72,7.17,5.29.71-.49,1.42-1,2.14-1.46.07-5.14,0-10.29,0-15.43a11.9,11.9,0,0,1-3.06-2.77c-1,.83-2.06,1.84-3.43,2m18.89-2.07a62.33,62.33,0,0,0,7.41-5.19,8.25,8.25,0,0,1,4.28,7.61c3.8-2.43,7.44-5.09,11.22-7.53,3.41.68,4.8,4.43,4.81,7.56,4-2.49,7.88-5.13,11.84-7.68a5.7,5.7,0,0,0,7.21,2.41,7.49,7.49,0,0,1-3.08,4.73,122,122,0,0,0,.17,14.31c.15,2.36,2.76,2.73,4.57,3.19-1.87,1.82-4.18,3.16-5.75,5.3-2.84-.4-5.58-2.41-5.77-5.47-.56-5.44,0-10.93-.25-16.39a21.84,21.84,0,0,1-3-2.81c-2,1.26-3.9,2.59-5.88,3.82-.08,4.57,0,9.13,0,13.7a9.87,9.87,0,0,1,4.1,2.61,19.46,19.46,0,0,0-6.79,5.11,12.28,12.28,0,0,0-8.34-3.77,10.65,10.65,0,0,1,3.93-3.73c0-3.92,0-7.83,0-11.74-.05-1.32.08-2.8-.78-3.91a9.77,9.77,0,0,0-2.77-1.75c-1.79,1.2-3.59,2.36-5.42,3.47-.13,4.56,0,9.12-.05,13.68a12.4,12.4,0,0,1,4.19,2.6,19.28,19.28,0,0,0-6.77,5.17,12.46,12.46,0,0,0-8.42-3.78,10.71,10.71,0,0,1,3.93-3.72c-.11-4.91.33-9.87-.24-14.75-.33-2.2-3-1.93-4.32-3m49.39-.3a20.26,20.26,0,0,0,6.78-5.08,13.07,13.07,0,0,0,8.41,3.75,13.27,13.27,0,0,1-4,3.72c.12,4.71-.26,9.45.2,14.15.07,2.46,2.85,2.78,4.61,3.51a36.3,36.3,0,0,0-7.51,5.37c-2.16-1.21-4-3.25-4.09-5.84-.33-5.68-.05-11.38-.14-17.06a10.73,10.73,0,0,1-4.26-2.52m138.7,0a22.94,22.94,0,0,0,6.84-4.92,14.69,14.69,0,0,0,8.33,3.61c-.93,1.62-2.62,2.58-3.81,3.89-.11,4,0,8.1,0,12.15,0,1.34-.05,3,1.16,3.9a17.4,17.4,0,0,0,3.46,1.32c-2.48,1.84-5.28,3.26-7.47,5.48-1.45-1-3.05-2.16-3.6-4a18.89,18.89,0,0,1-.62-5.51c0-4.48,0-9,0-13.46a10.63,10.63,0,0,1-4.24-2.51m17.71.37c1.88-1.87,4.09-3.39,5.91-5.34,2.54.32,5,2,5.5,4.71,1,5.55-.32,11.28.73,16.83.42,2.28,2.65,3.47,4.62,4.25,1.33.65,2.7-.3,4-.58,0-5.91,0-11.82,0-17.73a10.7,10.7,0,0,1-4.24-2.51,21.16,21.16,0,0,0,6.84-5,14,14,0,0,0,8.37,3.71,9.83,9.83,0,0,1-3.87,3.59c0,4.56,0,9.11,0,13.66a7.08,7.08,0,0,0,1.85,4.69,29.73,29.73,0,0,0-17.87,5c-2.67-.75-5.71-2-6.46-5-1.41-5.7-.16-11.65-.88-17.43-.25-2.21-2.78-2.46-4.5-2.85M536.16,643a19.81,19.81,0,0,0,16.67-3.61,26.44,26.44,0,0,0,7.33,10.23q-7.56,4.17-15.08,8.42c0,1.34,0,2.68,0,4a26.57,26.57,0,0,1,8.51,3.19c1.4-.88,2.78-1.78,4.18-2.67.18.31.54,1,.73,1.27-3.2,1.92-6.08,4.5-9.43,6.08-4.7-2.11-9.69-4.09-14.94-3.75a11,11,0,0,1,3.84-3.79c.09-4.88.08-9.76,0-14.64a7.59,7.59,0,0,0-1.84-4.75m8.92,1.18c0,4,0,8.07,0,12.1,2.44-1.34,4.89-2.68,7.32-4.06a74,74,0,0,1-4.93-8.48l-2.4.44M560,645c2.33-2.06,5.26-3.34,7.45-5.6a8.68,8.68,0,0,1,4.27,6.76c1.9-2.23,3.72-4.53,5.66-6.72,1.43,2.34,3.64,5.08,6.76,3.95-.79,2.58-2.18,5.71-5.23,6.07-2.46.63-4.7-1.07-5.67-3.21-.54.52-1.06,1-1.59,1.57,0,4.76,0,9.51,0,14.26a19.17,19.17,0,0,1,4.19,2.83l2.2-1.35c.15.31.43.94.58,1.25a54.06,54.06,0,0,0-8.36,5.2,9.92,9.92,0,0,0-4-2.79c-1.63-.48-3.29.07-4.88.34a10.51,10.51,0,0,1,3.3-4.74c.16-3.81,0-7.62.07-11.44-.06-1.71.06-3.71-1.2-5.06-1-.8-2.36-.89-3.51-1.32m26.73-1.74a17.78,17.78,0,0,0,15-3.83c1.5,1.38,3.21,2.9,5.38,2.87,1.76.12,2.67-1.57,3.78-2.62.3,1.47-.55,2.75-1.2,4-1.68,3-4.17,5.39-6.35,8,2.83,0,5.66,0,8.49,0-.62,1.25-1.49,2.49-1.4,4,.05,3.62-.56,7.51,1.4,10.77A17.22,17.22,0,0,0,596.57,670c-2.24-1.54-4.57-3.7-7.5-3.3-1.66.09-2.63,1.53-3.57,2.69-.34-.31-.66-.63-1-1,2.53-4.58,6.38-8.22,10.25-11.66-2.66,0-5.3,0-7.95,0,1.87-2.64,1.23-6,1.32-9a7.6,7.6,0,0,0-1.39-4.53m7.71,1c0,3.13,0,6.27,0,9.4a23.9,23.9,0,0,0,4.48-.18,52.09,52.09,0,0,0,8.81-9.24c-2.08,1.15-4.15,2.87-6.7,2.56a7.5,7.5,0,0,1-5-2.9l-1.63.36m-4.93,19.43c2.74-1.14,5.76-2.78,8.8-1.69,1.89.54,3,2.23,4.32,3.54l.93-.43c.4-3.38,0-6.85.17-10.27H600a57.24,57.24,0,0,0-10.41,8.85m25.75-19.27a21.82,21.82,0,0,0,6.74-5,13.69,13.69,0,0,0,8.32,3.74,12.71,12.71,0,0,1-3.89,3.66c0,4.15,0,8.29,0,12.43a5.32,5.32,0,0,0,1,3.68,29.67,29.67,0,0,0,3.69,1.62,37.8,37.8,0,0,0-7.43,5.31,8.93,8.93,0,0,1-3.52-3.51,12.45,12.45,0,0,1-.66-4.73q0-7.3,0-14.6a9.37,9.37,0,0,1-4.22-2.6m55.8,0a21.49,21.49,0,0,0,6.77-5,13.84,13.84,0,0,0,8.42,3.74,11.18,11.18,0,0,1-4,3.7c.09,5.12-.15,10.26.13,15.38-.08,2.43,2.28,4.11,2.13,6.57a9.48,9.48,0,0,1-3.74,7.73c-3.54,3.15-8.58,4.15-13.17,3.44-2.46-.32-4.69-1.46-7.07-2.1-1.42-.42-2.62.7-3.78,1.31a11.21,11.21,0,0,1,2.62-6,5.46,5.46,0,0,1,7.47.05c1.78,1.71,3.19,4,5.67,4.85a4.72,4.72,0,0,0,5.88-3.74c.47-2-.67-3.91-1.78-5.5-1.5-1.92-1.2-4.5-1.31-6.78-4,2.55-7.9,5.24-11.88,7.81-.88-1-1.73-2.23-3.07-2.68s-3,0-4.38.22a6.72,6.72,0,0,1,3.3-4.71c-.13-5,.34-9.95-.31-14.87-.42-2.16-3-2.16-4.63-2.86a33.44,33.44,0,0,0,6.1-5.1,7.83,7.83,0,0,1,4.43,2.38,9.3,9.3,0,0,1,1.35,4.94c0,4.93,0,9.87,0,14.81a6.84,6.84,0,0,1,3.19,2.48c2-1.3,3.91-2.63,5.9-3.89.06-4.52,0-9,0-13.56a10.37,10.37,0,0,1-4.26-2.57M363.19,644a11.61,11.61,0,0,0,6.37-4.47c1,1.77,2.26,4.07,4.61,3.92,2.67-.24,4.76-2.15,6.59-3.94,1,1.2,2.05,2.56,3.63,3,1.31.48,2.6-.3,3.85-.62a10.55,10.55,0,0,1-3.45,4.69c0,3.8,0,7.6,0,11.4,0,1.67.16,3.53,1.35,4.83,1,1,2.46,1.2,3.75,1.62a76.5,76.5,0,0,0-5.92,5.31,7.5,7.5,0,0,1-5.8-5.5c-2.71,2-5.51,3.88-8.25,5.84-2.48-.6-5.17-1.42-6.61-3.69a10.76,10.76,0,0,1-.82-8.14c1.06-3.36,4.23-5.39,7.17-7-2.15-2.44-4.44-4.75-6.45-7.32m8.56,2.78c-1.93.55-3.79-.49-5.53-1.17,3.11,3.53,6.35,7,9.43,10.53l-.28,1.17c-1.67-1.53-3.16-3.24-4.67-4.93-1.73,1.79-2.87,4.4-2,6.87.9,3.16,4.23,4.65,7.21,5.18.69-.51,1.4-1,2.1-1.5,0-5.14,0-10.28,0-15.41a10.85,10.85,0,0,1-3-2.72,8.38,8.38,0,0,1-3.24,2M449,644.83c2.55-1.72,5.3-3.16,7.48-5.38a8.3,8.3,0,0,1,4.36,7.79c3.91-2.59,7.85-5.14,11.76-7.73a5.82,5.82,0,0,0,7.34,2.38,7.47,7.47,0,0,1-3.11,4.66q0,6.32,0,12.63c.09,1.34.11,3.05,1.4,3.86,1.11.54,2.32.87,3.48,1.33a28.17,28.17,0,0,0-6.05,5.21c-2-.48-4.16-1.47-5-3.44a14.92,14.92,0,0,1-.85-5.74q0-6.48,0-13a8.87,8.87,0,0,1-3-2.64c-2.06,1.2-4,2.6-6,3.87-.09,4.52,0,9-.05,13.56a13.21,13.21,0,0,1,4.23,2.64,18.49,18.49,0,0,0-6.77,5.18,12.17,12.17,0,0,0-8.47-3.8,11.5,11.5,0,0,1,3.91-3.72c0-4.31,0-8.64,0-12.95,0-1.16-.13-2.55-1.14-3.29a31.16,31.16,0,0,0-3.55-1.46M208.21,689.2h0m31.77,0,.21.05h-.14l-.07-.05m132-.28h.33l0,.34H372l0-.33" transform="translate(-63.72 -12.36)"/><path class="cls-3" d="M249.63,692.57c1.42-3.77,4.06-7.6,8.19-8.62,3.61-1,6.8,1.53,10.25,2,1.94.3,3.65-.75,5.31-1.59-2.61,3.79-6.37,7.53-11.24,7.71-2.7-.18-5.08-1.75-7.78-1.89-1.85,0-3.3,1.34-4.73,2.35m85-7.73c.75-.28,1.44-1.07,2.3-.82-2.24,2.54-2.24,6.16-2.18,9.36,0,3.63,0,7.26,0,10.89q5.89-4,11.82-7.86c.92,1,1.79,2.27,3.18,2.72s2.82,0,4.22-.21a8,8,0,0,1-3.17,4.66c0,5-.07,10,0,14.95a8.16,8.16,0,0,0,1.9,5c-3-.4-6.66-1.24-9.17.92-.86,1.65,1.36,2.45,2.34,3.32,2.59,1.46,2.68,5.44.59,7.36-1.11,1.22-2.9,1.26-4.36,1.73,1.37-2.08,2.42-4.81,1.25-7.22-.48-1.56-1.9-3.11-1.1-4.81a19.29,19.29,0,0,0,1.42-6.21c.11-4.75,0-9.49,0-14.23a9.4,9.4,0,0,1-3-2.66c-2,1.27-3.9,2.63-5.92,3.84-.09,4.55,0,9.09,0,13.64a12.21,12.21,0,0,1,4.22,2.67c-2.71,1-4.79,3-6.84,4.94a12.35,12.35,0,0,0-8.37-3.59,11,11,0,0,1,3.91-3.77c.09-9.51,0-19,0-28.52A6.07,6.07,0,0,0,326,686.6a15.89,15.89,0,0,0,8.65-1.76m131.63,1.75A17.09,17.09,0,0,0,477,683.66c-1.05,1.89-2.09,3.91-2,6.13,0,9.84,0,19.68,0,29.52a11.73,11.73,0,0,1,3.82,2.6c.9-.45,1.82-.9,2.76-1.33l.27,1.24a43.31,43.31,0,0,0-8.23,5.17,7.94,7.94,0,0,0-9-2.41,6.72,6.72,0,0,1,3.32-4.62c0-9.67,0-19.34,0-29a7,7,0,0,0-1.62-4.36m-252.51,4a21,21,0,0,0,10.1-6.86c1,1,2,2.51,3.53,2.76,1.14.17,2-.81,2.82-1.37-.16,1.63.21,3.49-.9,4.87a5,5,0,0,1-6.17,1.49c-1.41-.72-2.4-2-3.89-2.63.75,1.55,1.86,2.9,2.48,4.51a21.52,21.52,0,0,1,1,6.12c2.5,0,5.09.28,7.49-.67-.51,1.14-1,2.3-1.39,3.45-2.06.09-4.13.08-6.18.08,0,5.56,0,11.12,0,16.68a19.23,19.23,0,0,1,4.1,2.86l2.42-1.35c.11.33.33,1,.43,1.35a81.71,81.71,0,0,0-8.27,5.11,10,10,0,0,0-4.25-2.82c-1.53-.5-3.09,0-4.59.36.31-2,1.69-3.35,3-4.69.1-5.83,0-11.67,0-17.51-1.67,0-3.33,0-5,0,.14-.91.25-1.83.47-2.74a38,38,0,0,1,4.53-.08c.09-3.06,0-6.32-1.82-8.91M272.84,689c3.14-2.13,6.42-4.52,10.28-5,3-.42,5.61,1.88,6.48,4.57a9.76,9.76,0,0,1-1.55,8.44c-1.68,2.42-4.26,4-6.79,5.37,2.65.46,5.92.87,7.41,3.45,2.55,5.3-.71,11.81,2.66,16.83-6.7-.85-13.31,1.3-18.95,4.8-6.42-3.54-14.06-2.28-20.67,0a21.33,21.33,0,0,1,9.51-7.46c5-1.9,10.56-1.31,15.6.13,0-7.38-.14-14.78.08-22.16l1.12-.25c0,1.57,0,3.15,0,4.73a10.44,10.44,0,0,0,6-9.68c0-3.29-3.75-6.08-6.89-4.75-2,.66-2.74,2.84-3,4.73-.73,6.18.4,12.49-.68,18.64-.72,4.45-5.95,5-9.49,6.06.81-1.11,1.86-2.2,1.89-3.68.27-5.24-.08-10.49.16-15.73.26-4.06,3.72-6.79,6.77-9m5.21,14.24c0,1.87,0,3.75,0,5.62a7.94,7.94,0,0,0,5.64,0c-.06-1.56.36-3.33-.55-4.73-1.52-.93-3.39-.87-5.1-.87m0,6.92c0,1.81,0,3.63,0,5.44a9.25,9.25,0,0,1,5.7,0c0-1.8,0-3.6,0-5.41a8.67,8.67,0,0,1-5.69,0m0,6.84c0,1.16,0,2.32.05,3.47,1.77.9,3.74,1.55,5.65.59.08-1.39,0-2.79,0-4.19A7,7,0,0,0,278,717m-20.83-19c1.81-2.4,4.77-3.45,7.52-4.39a13.08,13.08,0,0,0-1.29,3.84c-.36,5.33.33,10.71-.41,16-.91,4.76-5.6,7.34-9.81,8.74.82-1.09,2-2.1,2.08-3.55.22-2.7,0-5.41.09-8.12-1.27.09-2.65-.17-3.78.53a8.73,8.73,0,0,0-1.23,2.62c-.65-2.67-1.33-5.84.45-8.23,1-1.43,2.85-1.67,4.46-1.85.35-1.94.6-4,1.92-5.6M179.29,700a22.2,22.2,0,0,0,17.38-3.61,12.41,12.41,0,0,0,10.91,4.12,19,19,0,0,1-3.37,3.15c0,4.78-.11,9.56.06,14.32a9.05,9.05,0,0,0,1.62,4.8c-5.93-.85-12.4.14-17,4.25a15.23,15.23,0,0,0-11.6-3.85,13.74,13.74,0,0,1,3.91-4c0-4.59,0-9.17,0-13.76a8.2,8.2,0,0,0-1.91-5.4m9,1.2c0,5.87,0,11.73,0,17.6a10.38,10.38,0,0,1,6.54,3.53c.81-.24,1.61-.46,2.43-.67,0-5.68,0-11.35,0-17a11.24,11.24,0,0,1-6.7-3.92l-2.31.48m118.26-.76c2.84-.07,5-2.13,7-3.94a8.75,8.75,0,0,0,3.3,2.92c1.37.73,2.83-.18,4.18-.51a10.09,10.09,0,0,1-3.44,4.54c-.11,3.64,0,7.28-.06,10.92,0,1.81,0,3.79,1.15,5.29,1,1.19,2.56,1.41,4,1.71a77.2,77.2,0,0,0-5.81,5.34c-3-.3-5.1-2.67-5.94-5.43-2.68,2-5.46,3.77-8.11,5.77-2.74-.48-5.74-1.53-7.08-4.19a11,11,0,0,1-.24-8.24c1.22-3,4.21-4.78,6.91-6.35-2.19-2.43-4.37-4.86-6.57-7.28a11.57,11.57,0,0,0,6.52-4.47c.92,1.69,2,3.83,4.24,3.92m-1.83,3.25c-2.05.71-4-.46-5.91-1.16,2.46,2.49,4.69,5.2,7.09,7.74,1,1.22,2.47,2.23,2.55,3.93-2.07-1.16-3.4-3.21-5-4.86-1.7,1.79-2.81,4.36-2,6.82.87,3.16,4.14,4.58,7,5.29.76-.52,1.54-1,2.3-1.59,0-5.13,0-10.26,0-15.39a11.17,11.17,0,0,1-3-2.7,9,9,0,0,1-3,1.92m59.77-7.21c1,1.74,2.18,4,4.47,3.94,2.74-.17,4.89-2.12,6.71-4,1,1.18,2,2.63,3.58,3.08,1.32.53,2.63-.3,3.93-.55a10.38,10.38,0,0,1-3.51,4.65c0,3.8,0,7.6,0,11.4.1,1.53.13,3.2,1.06,4.5s2.59,1.49,4,2a52.61,52.61,0,0,0-5.65,5.21c-3.05-.19-5.14-2.65-6-5.4-2.74,2-5.52,3.87-8.25,5.83-2.48-.59-5.21-1.41-6.62-3.7a10.5,10.5,0,0,1-.49-9c1.28-2.93,4.18-4.62,6.84-6.15-2.19-2.39-4.39-4.78-6.49-7.26a11.64,11.64,0,0,0,6.41-4.52m2,7.31c-1.88.46-3.65-.57-5.35-1.19,3.06,3.57,6.38,6.92,9.38,10.54-.1.27-.29.83-.38,1.11-1.57-1.6-3.08-3.25-4.57-4.91-1.52,1.68-2.74,3.9-2.14,6.23.58,3.5,4.17,5.32,7.36,5.85.73-.55,1.47-1.09,2.22-1.64-.06-5.07,0-10.14-.05-15.22a10.14,10.14,0,0,1-3.1-2.84c-1,.8-2,1.86-3.37,2.07m19.15-2.53a28.65,28.65,0,0,0,5.53-4.9c2.88.56,5.63,2.61,5.74,5.77.25,5.65,0,11.3.11,16.95a19.64,19.64,0,0,1,3.27,2.33c2-1.31,3.94-2.6,5.89-3.94-.08-3.86.13-7.73-.11-11.59,0-1.47-.69-3.31-2.37-3.51-.6-.44-2.42,0-2-1.13a24.65,24.65,0,0,0,5.45-4.84c2.69.47,5.38,2.2,5.73,5.11.69,5.44-.32,11,.64,16.41.46,2.56,3.06,3.83,5.29,4.57a12.14,12.14,0,0,0,3.43-.85c0-5.88,0-11.76,0-17.64A9.89,9.89,0,0,1,418,701.4a21.27,21.27,0,0,0,6.77-5,13.42,13.42,0,0,0,8.3,3.72,10.62,10.62,0,0,1-3.88,3.68c0,4.67-.12,9.34.06,14,0,1.59.93,2.93,1.73,4.23a30.17,30.17,0,0,0-17.67,5c-2.08-.6-4.31-1.36-5.67-3.14-1.12-1.41-1.31-3.24-1.59-4.95-3.85,2.71-7.85,5.22-11.74,7.87-.88-1.06-1.7-2.36-3.11-2.73-1.48-.55-3,0-4.46.26a6.6,6.6,0,0,1,3.4-4.7c-.08-4.79.25-9.59-.18-14.36a3,3,0,0,0-2.44-3c-.54-.41-2.24,0-1.85-1.08m57-4.75c1,1.64,2.11,3.86,4.35,3.92,2.83-.1,5-2.15,7-3.92a7.9,7.9,0,0,0,3.29,3c1.37.63,2.81-.29,4.18-.56a15.08,15.08,0,0,1-3.43,4.75c-.15,3.38,0,6.77-.07,10.15,0,2-.14,4.18,1.14,5.85,1,1.16,2.55,1.38,3.95,1.77a58.57,58.57,0,0,0-5.85,5.28,7.2,7.2,0,0,1-5.9-5.42c-2.67,1.94-5.45,3.74-8.07,5.75-2.76-.44-5.76-1.55-7.1-4.18a10.93,10.93,0,0,1-.46-7.72c1.09-3.32,4.22-5.25,7.1-6.87-2.18-2.42-4.33-4.87-6.57-7.24a11.45,11.45,0,0,0,6.45-4.52m1.95,7.33c-1.88.35-3.63-.64-5.32-1.31,2.48,2.65,4.84,5.41,7.32,8,.92,1.06,2.1,2,2.32,3.51-2.24-1-3.4-3.29-5.3-4.72-1.43,1.94-2.65,4.37-1.78,6.82.87,3.16,4.16,4.56,7.06,5.26l2.32-1.59c-.06-5.13.07-10.26-.07-15.39a11.3,11.3,0,0,1-3-2.69,8.12,8.12,0,0,1-3.56,2.06m50.12-.42c3.29-2.45,6.8-4.58,10.16-6.95,1.33,1.24,2.71,2.61,4.58,3,1.44.39,2.87-.26,4.26-.61-.26,2-1.59,3.43-3,4.72-.15,3.81,0,7.63-.06,11.44,0,2.09-.3,4.58,1.58,6-5,.15-10.23,1.36-13.94,4.92a11,11,0,0,0-3.68-2.71c.4,3.84-1.2,8.4,1.73,11.54-3.87-.52-7.64.91-10.87,2.89,3-4.38,1.84-9.86,2.06-14.83a7.21,7.21,0,0,0-4.55,1.7c.24-1.43.23-3,1.1-4.24s2.19-1.7,3.44-2.3c0-4.19.09-8.38,0-12.56-.07-2.5-2.9-2.79-4.65-3.62a35.44,35.44,0,0,0,7.48-5.36,8.48,8.48,0,0,1,4.43,7m-.12,1.48c0,4.18,0,8.36,0,12.53a11.81,11.81,0,0,1,5.27,1.87c1.22.81,2.11,2.2,3.66,2.43.17-5.79,0-11.59.08-17.38a8.62,8.62,0,0,1-4.24-2.85c-1.59,1.16-3.2,2.25-4.77,3.4m22-3.61a14,14,0,0,0,5.52-4.93c2.78.8,5.47,2.8,5.71,5.9.5,5.56.08,11.18.23,16.76a7.82,7.82,0,0,1,3.06,2.47c2-1.32,4-2.64,6-3.92-.06-4.53,0-9.08-.06-13.62a15.55,15.55,0,0,1-4.24-2.39,27.09,27.09,0,0,0,7-5.13,13.31,13.31,0,0,0,8.32,3.69,10.4,10.4,0,0,1-3.89,3.59c-.11,4,0,7.94-.06,11.92,0,1.5,0,3.24,1.13,4.38a13.62,13.62,0,0,0,3.48,1.36c-2.38,1.93-5.23,3.24-7.36,5.49A8.87,8.87,0,0,1,537,719c-3.84,2.64-7.81,5.07-11.61,7.75-1.07-1.21-2.2-2.6-3.9-2.81-1.27-.34-2.5.26-3.69.56A7.54,7.54,0,0,1,521,719.7c0-4.37,0-8.74,0-13.11,0-1.53-.5-3.43-2.16-3.91-.71-.53-2.3-.24-2.24-1.41M553,699.74a24.63,24.63,0,0,0,4.11-3.31,7.9,7.9,0,0,1,4.37,6.9c1.81-2.38,3.79-4.63,5.73-6.91,1.43,2.32,3.59,5,6.71,4-.72,2.5-2,5.49-4.91,5.95-2.56.79-5-1-6-3.24-.53.61-1.07,1.22-1.59,1.83,0,4.7,0,9.41,0,14.12a17.56,17.56,0,0,1,4.28,2.8c.78-.46,1.57-.92,2.38-1.37l.12,1.44c-2.75,1.54-5.64,2.91-8,5-1.35-1.11-2.61-2.55-4.41-2.86-1.53-.41-3.06.14-4.55.39a7,7,0,0,1,3.19-4.47c.12-4.1,0-8.21.07-12.31,0-1.48.06-3.24-1.11-4.35-.87-.92-2.25-.94-3.36-1.32.58-1.21,1.9-1.66,3-2.36" transform="translate(-63.72 -12.36)"/><path class="cls-4" d="M328.24,378v-5h-.82v-.81h.82v-.27a2.75,2.75,0,0,1,.67-2,2,2,0,0,1,1.41-.54,2.28,2.28,0,0,1,.9.17l-.14.81a1.62,1.62,0,0,0-.67-.13c-.9,0-1.13.79-1.13,1.68v.31h1.4V373h-1.4v5Z" transform="translate(-63.72 -12.36)"/><path class="cls-4" d="M331.63,374c0-.68,0-1.27,0-1.81h.92l0,1.14h0a1.75,1.75,0,0,1,1.61-1.27,1,1,0,0,1,.3,0v1a1.94,1.94,0,0,0-.36,0,1.47,1.47,0,0,0-1.41,1.35,2.46,2.46,0,0,0-.05.49V378h-1.05Z" transform="translate(-63.72 -12.36)"/><path class="cls-4" d="M336,375.29a1.85,1.85,0,0,0,2,2,3.75,3.75,0,0,0,1.6-.3l.18.76a4.63,4.63,0,0,1-1.93.36,2.7,2.7,0,0,1-2.85-2.93c0-1.75,1-3.13,2.72-3.13a2.46,2.46,0,0,1,2.4,2.74,2.81,2.81,0,0,1,0,.49Zm3.09-.76a1.5,1.5,0,0,0-1.46-1.71,1.74,1.74,0,0,0-1.62,1.71Z" transform="translate(-63.72 -12.36)"/><path class="cls-4" d="M342,375.29a1.85,1.85,0,0,0,2,2,3.83,3.83,0,0,0,1.61-.3l.18.76a4.72,4.72,0,0,1-1.94.36,2.7,2.7,0,0,1-2.85-2.93c0-1.75,1-3.13,2.72-3.13a2.46,2.46,0,0,1,2.4,2.74,4.88,4.88,0,0,1,0,.49Zm3.09-.76a1.5,1.5,0,0,0-1.46-1.71,1.74,1.74,0,0,0-1.62,1.71Z" transform="translate(-63.72 -12.36)"/><path class="cls-4" d="M347.46,369.48h1.06V378h-1.06Z" transform="translate(-63.72 -12.36)"/><path class="cls-4" d="M355.55,375.05a2.84,2.84,0,0,1-2.89,3.08,2.76,2.76,0,0,1-2.79-3,2.84,2.84,0,0,1,2.88-3.08A2.75,2.75,0,0,1,355.55,375.05Zm-4.61.06c0,1.27.73,2.23,1.76,2.23s1.77-.95,1.77-2.26c0-1-.49-2.23-1.74-2.23S350.94,374,350.94,375.11Z" transform="translate(-63.72 -12.36)"/><path class="cls-4" d="M361.88,372.19c0,.42-.05.89-.05,1.6v3.37a3.36,3.36,0,0,1-.82,2.65,3.07,3.07,0,0,1-2.11.69A3.64,3.64,0,0,1,357,380l.26-.8a3.25,3.25,0,0,0,1.7.46c1.08,0,1.87-.57,1.87-2V377h0a2.07,2.07,0,0,1-1.85,1,2.59,2.59,0,0,1-2.47-2.83,2.79,2.79,0,0,1,2.62-3.08,1.94,1.94,0,0,1,1.81,1h0l0-.88Zm-1.09,2.29a1.47,1.47,0,0,0-.06-.48,1.52,1.52,0,0,0-1.47-1.11c-1,0-1.73.85-1.73,2.19,0,1.14.57,2.09,1.71,2.09a1.55,1.55,0,0,0,1.47-1.08,1.81,1.81,0,0,0,.08-.56Z" transform="translate(-63.72 -12.36)"/><path class="cls-4" d="M368.84,375.05a2.84,2.84,0,0,1-2.89,3.08,2.76,2.76,0,0,1-2.78-3,2.83,2.83,0,0,1,2.88-3.08A2.74,2.74,0,0,1,368.84,375.05Zm-4.6.06c0,1.27.73,2.23,1.76,2.23s1.76-.95,1.76-2.26c0-1-.49-2.23-1.74-2.23S364.24,374,364.24,375.11Z" transform="translate(-63.72 -12.36)"/><path class="cls-4" d="M370.5,372.19l1.14,3.27a14.72,14.72,0,0,1,.47,1.48h0c.14-.48.3-1,.5-1.48l1.12-3.27h1.11L372.59,378h-1l-2.21-5.81Z" transform="translate(-63.72 -12.36)"/><path class="cls-4" d="M376.33,375.29a1.86,1.86,0,0,0,2,2,3.76,3.76,0,0,0,1.61-.3l.18.76a4.67,4.67,0,0,1-1.93.36,2.69,2.69,0,0,1-2.85-2.93c0-1.75,1-3.13,2.72-3.13a2.47,2.47,0,0,1,2.4,2.74,4.35,4.35,0,0,1,0,.49Zm3.1-.76a1.5,1.5,0,0,0-1.47-1.71,1.74,1.74,0,0,0-1.61,1.71Z" transform="translate(-63.72 -12.36)"/><path class="cls-4" d="M385.9,377.78a3.81,3.81,0,0,1-1.67.34,2.76,2.76,0,0,1-2.89-3,3,3,0,0,1,3.12-3.09,3.6,3.6,0,0,1,1.46.3l-.24.82a2.37,2.37,0,0,0-1.22-.28,2.19,2.19,0,0,0,0,4.37,3,3,0,0,0,1.3-.29Z" transform="translate(-63.72 -12.36)"/><path class="cls-4" d="M388.56,370.53v1.66h1.51V373h-1.51v3.13c0,.72.2,1.12.79,1.12a2.15,2.15,0,0,0,.61-.07l.05.79a2.42,2.42,0,0,1-.93.15,1.45,1.45,0,0,1-1.14-.45,2.13,2.13,0,0,1-.41-1.51V373h-.9v-.81h.9V370.8Z" transform="translate(-63.72 -12.36)"/><path class="cls-4" d="M396.44,375.05a2.84,2.84,0,0,1-2.89,3.08,2.76,2.76,0,0,1-2.78-3,2.83,2.83,0,0,1,2.88-3.08A2.75,2.75,0,0,1,396.44,375.05Zm-4.6.06c0,1.27.73,2.23,1.76,2.23s1.76-.95,1.76-2.26c0-1-.49-2.23-1.74-2.23S391.84,374,391.84,375.11Z" transform="translate(-63.72 -12.36)"/><path class="cls-4" d="M397.78,374c0-.68,0-1.27,0-1.81h.92l0,1.14h.05a1.74,1.74,0,0,1,1.6-1.27.91.91,0,0,1,.3,0v1a1.79,1.79,0,0,0-.36,0,1.47,1.47,0,0,0-1.41,1.35,2.46,2.46,0,0,0-.05.49V378h-1Z" transform="translate(-63.72 -12.36)"/><path class="cls-4" d="M401.56,376.92a2.79,2.79,0,0,0,1.39.42c.77,0,1.13-.39,1.13-.87s-.3-.78-1.08-1.06c-1.05-.37-1.54-1-1.54-1.65a1.79,1.79,0,0,1,2-1.7,2.91,2.91,0,0,1,1.43.36l-.26.77a2.22,2.22,0,0,0-1.19-.34c-.62,0-1,.36-1,.79s.35.7,1.1,1c1,.38,1.52.89,1.52,1.75,0,1-.79,1.74-2.17,1.74a3.33,3.33,0,0,1-1.63-.4Z" transform="translate(-63.72 -12.36)"/><path class="cls-4" d="M406.07,377.37a.71.71,0,0,1,.72-.75.76.76,0,0,1,0,1.51A.71.71,0,0,1,406.07,377.37Z" transform="translate(-63.72 -12.36)"/><path class="cls-4" d="M408.81,373.76c0-.6,0-1.09-.05-1.57h.93l.06,1h0a2.13,2.13,0,0,1,1.92-1.09c.8,0,2.05.48,2.05,2.47V378h-1.06v-3.35c0-.93-.35-1.71-1.34-1.71a1.5,1.5,0,0,0-1.42,1.08,1.45,1.45,0,0,0-.07.49V378h-1.05Z" transform="translate(-63.72 -12.36)"/><path class="cls-4" d="M416.05,375.29a1.86,1.86,0,0,0,2,2,3.8,3.8,0,0,0,1.61-.3l.18.76a4.67,4.67,0,0,1-1.93.36,2.7,2.7,0,0,1-2.86-2.93c0-1.75,1-3.13,2.73-3.13a2.47,2.47,0,0,1,2.4,2.74,4.35,4.35,0,0,1,0,.49Zm3.1-.76a1.5,1.5,0,0,0-1.47-1.71,1.76,1.76,0,0,0-1.62,1.71Z" transform="translate(-63.72 -12.36)"/><path class="cls-4" d="M422.75,370.53v1.66h1.51V373h-1.51v3.13c0,.72.2,1.12.79,1.12a2.15,2.15,0,0,0,.61-.07l.05.79a2.44,2.44,0,0,1-.94.15,1.44,1.44,0,0,1-1.13-.45,2.13,2.13,0,0,1-.41-1.51V373h-.9v-.81h.9V370.8Z" transform="translate(-63.72 -12.36)"/></svg>